HIERARCHY
ROOT pelvis
{
  OFFSET 0 0 0
  CHANNELS 6 Xposition Yposition Zposition Zrotation Xrotation Yrotation
  JOINT pelvis_right_femur
  {
    OFFSET -11.43119 -3.542788 0.2090856
    CHANNELS 3 Zrotation Xrotation Yrotation
    JOINT right_femur_tibia
    {
      OFFSET -1.028693 -40.73281 5
      CHANNELS 3 Zrotation Xrotation Yrotation
      JOINT right_tibia_foot
      {
        OFFSET -0.5013517 -42.05707 -5
        CHANNELS 3 Zrotation Xrotation Yrotation
        End Site
        {
          OFFSET 0 -5 10
        }
      }
    }
  }
  JOINT pelvis_left_femur
  {
    OFFSET 11.43119 -3.542788 0.2090856
    CHANNELS 3 Zrotation Xrotation Yrotation
    JOINT left_femur_tibia
    {
      OFFSET 1.028693 -40.73281 5
      CHANNELS 3 Zrotation Xrotation Yrotation
      JOINT left_tibia_foot
      {
        OFFSET 0.3200228 -42.98253 -5
        CHANNELS 3 Zrotation Xrotation Yrotation
        End Site
        {
          OFFSET 0 -5 10
        }
      }
    }
  }
  JOINT pelvis_spine1
  {
    OFFSET 0 8.64413 -3.209807
    CHANNELS 3 Zrotation Xrotation Yrotation
    JOINT spine1
    {
      OFFSET 0 29.53957 -1.762685
      CHANNELS 3 Zrotation Xrotation Yrotation
      JOINT spine2
      {
        OFFSET 0 16.36153 -0.1422377
        CHANNELS 3 Zrotation Xrotation Yrotation
        JOINT neck
        {
          OFFSET 0 11.60093 5
          CHANNELS 3 Zrotation Xrotation Yrotation
          End Site
          {
            OFFSET 0 20 0
          }
        }
      }
      JOINT right_manubrium
      {
        OFFSET -4.671311 15.89868 4
        CHANNELS 3 Zrotation Xrotation Yrotation
        JOINT right_clavicle
        {
          OFFSET -13.601 1.573642 -2.74176
          CHANNELS 3 Zrotation Xrotation Yrotation
          JOINT right_humerus
          {
            OFFSET -0.06331682 -27.72702 2.252146
            CHANNELS 3 Zrotation Xrotation Yrotation
            JOINT right_radius
            {
              OFFSET -0.5696302 -23.92083 0.4042105
              CHANNELS 3 Zrotation Xrotation Yrotation
              End Site
              {
                OFFSET 0 -15 0
              }
            }
          }
        }
      }
      JOINT left_manubrium
      {
        OFFSET 4.671311 15.89868 4
        CHANNELS 3 Zrotation Xrotation Yrotation
        JOINT left_clavicle
        {
          OFFSET 13.601 1.573642 -2.74176
          CHANNELS 3 Zrotation Xrotation Yrotation
          JOINT left_humerus
          {
            OFFSET 0.000209614 -29.01858 1.101395
            CHANNELS 3 Zrotation Xrotation Yrotation
            JOINT left_radius
            {
              OFFSET -0.2288314 -24.59216 1.790347
              CHANNELS 3 Zrotation Xrotation Yrotation
              End Site
              {
                OFFSET 0 -15 0
              }
            }
          }
        }
      }
    }
  }
}
MOTION
Frames: 7
Frame Time: 0.0416666666667
0 48.26591 0 -4.621148 -19.84166 -1.47833 -52.79648 -59.43075 -52.64307 -180 85.73773 -180 5.277183 4.979893 -1.320985 68.79123 -51.78379 63.65169 -180 80.22501 -180 -4.250539 3.261858 -20.0321 2.026716 23.24431 0.1431318 5.269899 14.95376 -8.966473 -10.71103 9.056832 7.863774 8.852683 -32.48027 3.143765 23.68194 -10.81104 22.96878 -62.32851 -27.89357 12.89902 0 -71.52789 0 3.458262 -11.90931 27.3493 -27.87881 -31.70543 -5.603777 53.89378 -19.925 -24.87885 0 -81.05923 0 -16.52169 20.51019 -41.24747
-0.01451089 48.26182 -0.05765389 -4.56114 -19.82947 -1.308925 -52.85819 -59.44911 -52.61552 -180 85.76064 -180 5.304593 4.982752 -1.426829 68.79271 -51.87662 63.79044 -180 80.29037 -180 -4.2134 3.330413 -20.07184 1.803809 23.38317 0.235984 5.94364 14.89814 -9.22752 -11.02179 8.821741 7.853307 8.713872 -32.61957 2.873342 24.97546 -12.09735 22.74597 -61.98934 -26.21392 9.87615 0 -71.72305 0 0.1206447 -14.90596 25.44834 -27.95662 -31.83299 -5.619974 53.92372 -19.82195 -24.91562 0 -81.14782 0 -16.48071 20.43394 -41.16107
0.008750049 48.27228 -0.08386035 -4.552749 -19.79326 -1.167828 -52.8431 -59.46415 -52.50141 -180 85.79277 -180 5.320493 4.977981 -1.511474 68.82102 -51.91024 63.952 -180 80.32677 -180 -4.181293 3.367609 -20.12768 1.55551 23.42828 0.1198638 6.851112 14.83791 -9.592975 -11.53919 8.744739 7.984137 8.527869 -32.72072 2.673712 27.06702 -14.41405 22.33256 -61.8243 -24.3174 5.282285 0 -71.73866 0 -4.154183 -17.98225 22.9611 -28.14014 -31.9947 -5.370753 53.96884 -19.59003 -24.90105 0 -81.27313 0 -16.43248 20.33193 -41.07159
0.09315337 48.26708 -0.08589741 -4.583039 -19.68322 -1.097657 -52.96981 -59.5466 -52.53223 -180 85.80358 -180 5.339818 5.008157 -1.587806 69.0069 -51.93371 64.2965 -180 80.29361 -180 -4.168705 3.392177 -20.17528 1.351705 23.49027 -0.03034785 7.723781 14.56116 -9.987853 -12.08746 8.755014 8.18762 8.362031 -32.7482 2.541219 29.23589 -17.4905 21.99483 -62.02898 -22.32052 -0.1396748 0 -70.65995 0 -8.832757 -20.59044 19.93937 -28.34199 -32.13386 -4.940587 53.9632 -19.30242 -24.92302 0 -81.51631 0 -16.37222 20.20807 -40.98235
0.1969054 48.26748 -0.04723686 -4.604557 -19.52535 -1.098989 -53.18286 -59.66659 -52.64976 -180 85.80613 -180 5.34183 5.042201 -1.613632 69.22437 -51.9022 64.69236 -180 80.24 -180 -4.180164 3.380573 -20.22131 1.247707 23.52731 -0.2093375 8.238946 14.23419 -10.24852 -12.53388 8.780942 8.399722 8.292987 -32.77113 2.453086 30.79133 -20.92505 22.07027 -62.78859 -20.35239 -5.529068 0 -67.79521 0 -13.16564 -22.27466 16.67007 -28.5067 -32.24068 -4.527246 53.9837 -18.99794 -24.98157 0 -81.83699 0 -16.33547 20.05658 -40.90031
0.263387 48.27972 0.002641461 -4.57989 -19.29892 -1.135288 -53.50764 -59.82807 -52.89352 -180 85.80205 -180 5.326089 5.057869 -1.591755 69.46231 -51.83551 65.12802 -180 80.19092 -180 -4.207858 3.338173 -20.26072 1.223753 23.53492 -0.3382186 8.336146 13.92799 -10.34954 -12.84326 8.717257 8.574583 8.325732 -32.83404 2.356546 31.4333 -24.35575 22.52495 -64.10643 -18.48679 -10.23753 0 -63.0532 0 -16.56326 -22.9652 13.53092 -28.57889 -32.34908 -4.195408 54.06878 -18.70336 -25.0512 0 -82.19695 0 -16.31188 19.88032 -40.81759
0.2994071 48.24296 0.05481212 -4.497109 -19.04136 -1.229313 -54.05513 -60.08796 -53.38173 -180 85.73452 -180 5.308019 5.10031 -1.539777 69.75693 -51.8086 65.61744 -180 80.12028 -180 -4.262504 3.296913 -20.24313 1.296307 23.54863 -0.3647638 8.067271 13.6325 -10.35453 -13.09381 8.503569 8.662106 8.384058 -32.9248 2.172894 31.08055 -27.44352 23.12727 -65.84913 -16.72741 -13.868 0 -56.87317 0 -18.70943 -22.85227 10.80308 -28.53256 -32.47724 -3.941368 54.23826 -18.43954 -25.09482 0 -82.62912 0 -16.29885 19.64832 -40.73188
